<svg width="25" height="25" viewBox="0 0 25 25" fill="none" xmlns="http://www.w3.org/2000/svg">
<path d="M23.6715 16.72L17.8146 14.095L17.7996 14.0875C17.4954 13.9572 17.1634 13.9049 16.8338 13.9353C16.5042 13.9657 16.1873 14.0778 15.912 14.2616C15.8796 14.2829 15.8484 14.3062 15.8187 14.3312L12.792 16.9115C10.8746 15.9801 8.89486 14.0154 7.96348 12.1228L10.5475 9.05C10.5724 9.01896 10.596 8.98781 10.6183 8.95427C10.798 8.67981 10.907 8.36523 10.9355 8.03847C10.9642 7.71183 10.9117 7.38306 10.7825 7.08156C10.782 7.07659 10.782 7.0716 10.7825 7.06663L8.15 1.19849C7.97931 0.804629 7.68583 0.476524 7.31335 0.263168C6.94087 0.0498125 6.50937 -0.0373557 6.08327 0.0146701C4.39828 0.236394 2.8516 1.06391 1.73214 2.34264C0.612678 3.62138 -0.00303571 5.26389 1.12548e-05 6.96342C1.12548e-05 16.8369 8.0331 24.87 17.9066 24.87C19.6061 24.8731 21.2486 24.2573 22.5274 23.1379C23.8061 22.0185 24.6337 20.4718 24.8554 18.7868C24.9073 18.3606 24.8202 17.9292 24.6068 17.5567C24.3934 17.1843 24.0654 16.8907 23.6715 16.72ZM17.9066 22.8804C13.6865 22.8758 9.64068 21.1974 6.65669 18.2133C3.67268 15.2293 1.99424 11.1834 1.98963 6.96342C1.98496 5.74911 2.42244 4.57462 3.22038 3.65929C4.01833 2.74395 5.12217 2.15036 6.32577 1.98936C6.32527 1.99433 6.32527 1.99932 6.32577 2.00429L8.93715 7.84883L6.3668 10.9252C6.34066 10.9553 6.31696 10.9872 6.29592 11.021C6.10879 11.3082 5.99902 11.6388 5.97722 11.9809C5.95544 12.3229 6.02238 12.6647 6.17157 12.9733C7.29819 15.2775 9.61988 17.5818 11.949 18.7072C12.2598 18.855 12.6036 18.9195 12.9469 18.8948C13.2902 18.8699 13.6212 18.7564 13.9075 18.5654C13.9396 18.5439 13.9704 18.5201 13.9994 18.4946L17.0225 15.9167L22.867 18.5356H22.8806C22.7214 19.7406 22.1286 20.8464 21.213 21.646C20.2975 22.4457 19.1222 22.8846 17.9066 22.8804ZM13.9274 3.97899C13.9274 3.71515 14.0322 3.46212 14.2187 3.27555C14.4053 3.08899 14.6583 2.98417 14.9222 2.98417H22.8806C23.1445 2.98417 23.3975 3.08899 23.5841 3.27555C23.7706 3.46212 23.8755 3.71515 23.8755 3.97899C23.8755 4.24283 23.7706 4.49587 23.5841 4.68243C23.3975 4.86899 23.1445 4.9738 22.8806 4.9738H14.9222C14.6583 4.9738 14.4053 4.86899 14.2187 4.68243C14.0322 4.49587 13.9274 4.24283 13.9274 3.97899ZM13.9274 8.95302C13.9274 8.68925 14.0322 8.43617 14.2187 8.2496C14.4053 8.06303 14.6583 7.95821 14.9222 7.95821H22.8806C23.1445 7.95821 23.3975 8.06303 23.5841 8.2496C23.7706 8.43617 23.8755 8.68925 23.8755 8.95302C23.8755 9.2169 23.7706 9.46986 23.5841 9.65643C23.3975 9.843 23.1445 9.94783 22.8806 9.94783H14.9222C14.6583 9.94783 14.4053 9.843 14.2187 9.65643C14.0322 9.46986 13.9274 9.2169 13.9274 8.95302Z" fill="#3A0B14"/>
</svg>
