<svg width="25" height="25" viewBox="0 0 25 25" fill="none" xmlns="http://www.w3.org/2000/svg">
<path d="M12.4211 6.04334C11.1597 6.04334 9.92662 6.41739 8.87782 7.11818C7.82899 7.81898 7.01153 8.8151 6.52881 9.9804C6.04609 11.1458 5.91979 12.4282 6.16588 13.6654C6.41197 14.9025 7.01939 16.0389 7.91134 16.9309C8.80332 17.8228 9.93972 18.4303 11.1768 18.6763C12.414 18.9224 13.6964 18.7961 14.8618 18.3134C16.0271 17.8307 17.0232 17.0132 17.724 15.9644C18.4248 14.9156 18.7989 13.6825 18.7989 12.4211C18.8009 11.583 18.6374 10.7527 18.3176 9.978C17.9978 9.2033 17.5281 8.4994 16.9354 7.90677C16.3428 7.31413 15.6389 6.84442 14.8642 6.52464C14.0895 6.20485 13.2592 6.04128 12.4211 6.04334ZM12.4211 16.5744C11.5996 16.5744 10.7966 16.3309 10.1136 15.8745C9.43062 15.4181 8.89832 14.7694 8.58392 14.0105C8.26958 13.2516 8.18733 12.4165 8.34758 11.6108C8.50782 10.8052 8.90342 10.0651 9.48422 9.4843C10.0651 8.9034 10.8051 8.5078 11.6108 8.34758C12.4165 8.18733 13.2516 8.26958 14.0105 8.5839C14.7694 8.8983 15.4181 9.4306 15.8745 10.1136C16.3308 10.7967 16.5744 11.5997 16.5744 12.4211C16.5744 13.5226 16.1368 14.5791 15.3579 15.358C14.579 16.1369 13.5226 16.5744 12.4211 16.5744ZM20.5566 5.77889C20.5566 6.08655 20.4654 6.3873 20.2945 6.64311C20.1236 6.89892 19.8806 7.0983 19.5964 7.21604C19.3121 7.33377 18.9994 7.36458 18.6976 7.30456C18.3959 7.24453 18.1187 7.09638 17.9011 6.87884C17.6836 6.66129 17.5354 6.38411 17.4754 6.08236C17.4154 5.78062 17.4462 5.46785 17.5639 5.18361C17.6817 4.89937 17.8811 4.65642 18.1369 4.48549C18.3927 4.31457 18.6934 4.22334 19.0011 4.22334C19.4137 4.22334 19.8093 4.38722 20.101 4.67895C20.3928 4.97067 20.5566 5.36633 20.5566 5.77889ZM24.7722 7.33445C24.8192 5.40032 24.0976 3.52645 22.7655 2.12334C22.0745 1.45536 21.2586 0.930178 20.3644 0.577848C19.4702 0.225518 18.5154 0.0529475 17.5544 0.0699975C15.5322 -0.0233325 9.31002 -0.0233325 7.28778 0.0699975C5.35454 0.0281375 3.48253 0.748998 2.07667 2.07667C0.744627 3.47978 0.0230475 5.35366 0.0699975 7.28778C-0.0233325 9.31 -0.0233325 15.5322 0.0699975 17.5544C0.0230475 19.4886 0.744627 21.3624 2.07667 22.7656C3.48253 24.0932 5.35454 24.8141 7.28778 24.7722C9.34112 24.8967 15.5011 24.8967 17.5544 24.7722C19.4885 24.8192 21.3624 24.0976 22.7655 22.7656C24.0976 21.3624 24.8192 19.4886 24.7722 17.5544C24.8655 15.5322 24.8655 9.31 24.7722 7.28778V7.33445ZM22.1278 19.7789C21.9166 20.3139 21.5977 20.7998 21.191 21.2066C20.7843 21.6133 20.2983 21.9321 19.7633 22.1433C17.3485 22.6316 14.8797 22.7989 12.4211 22.6411C9.96762 22.7976 7.50422 22.6302 5.09444 22.1433C4.55943 21.9321 4.0735 21.6133 3.66677 21.2066C3.26005 20.7998 2.9412 20.3139 2.73 19.7789C2.07667 18.13 2.21667 14.2411 2.21667 12.4367C2.21667 10.6322 2.07667 6.72778 2.73 5.09445C2.93524 4.55415 3.25181 4.06305 3.65915 3.65303C4.0665 3.24301 4.55551 2.92323 5.09444 2.71445C7.50422 2.22759 9.96762 2.06023 12.4211 2.21667C14.8797 2.05885 17.3485 2.22622 19.7633 2.71445C20.2983 2.92565 20.7843 3.2445 21.191 3.65122C21.5977 4.05794 21.9166 4.54388 22.1278 5.07889C22.7811 6.72778 22.6255 10.6167 22.6255 12.4211C22.6255 14.2256 22.7811 18.13 22.1278 19.7633V19.7789Z" fill="#3A0B14"/>
</svg>
