<svg width="106" height="21" viewBox="0 0 106 21" fill="none" xmlns="http://www.w3.org/2000/svg">
<path d="M43.738 9.70996H47.5652L49.0398 16.099L50.5041 9.70996H54.3287V20.2132H51.9454V12.2053L50.1098 20.2132H47.9518L46.1188 12.2053V20.2132H43.7354V9.70996H43.738Z" fill="#63121A"/>
<path d="M56.0156 9.70953H63.327V11.9515H58.7497V13.621H62.9967V15.7617H58.7497V17.8314H63.4601V20.2102H56.0156V9.70703V9.70953Z" fill="#63121A"/>
<path d="M65.0651 9.70996H69.0305C69.8113 9.70996 70.4437 9.83916 70.9249 10.0976C71.4062 10.356 71.803 10.7258 72.1179 11.2072C72.4328 11.6885 72.6606 12.2509 72.8014 12.8918C72.9422 13.5328 73.0139 14.2092 73.0139 14.9261C73.0139 16.0484 72.9089 16.9198 72.699 17.538C72.4891 18.1561 72.1973 18.6754 71.8235 19.0934C71.4497 19.5114 71.0504 19.7901 70.6203 19.9269C70.0341 20.1169 69.5041 20.2132 69.028 20.2132H65.0625V9.70996H65.0651ZM67.7352 12.0888V17.8268H68.3905C68.9486 17.8268 69.3454 17.7508 69.5809 17.6013C69.8165 17.4518 70.0008 17.1884 70.1339 16.8134C70.267 16.4385 70.3336 15.8305 70.3336 14.9894C70.3336 13.8773 70.1851 13.1148 69.8856 12.7044C69.5861 12.294 69.092 12.0888 68.4008 12.0888H67.7352Z" fill="#63121A"/>
<path d="M74.1152 9.74805H77.031V20.2512H74.1152V9.74805Z" fill="#63121A"/>
<path d="M84.7134 15.9087L87.2631 16.7675C87.0916 17.5655 86.8228 18.2318 86.4542 18.7663C86.0855 19.3009 85.6299 19.7037 85.082 19.9773C84.5368 20.2483 83.8404 20.3851 82.9982 20.3851C81.9742 20.3851 81.1396 20.2205 80.4894 19.8886C79.8392 19.5567 79.2811 18.9741 78.81 18.1381C78.339 17.3021 78.1035 16.233 78.1035 14.9309C78.1035 13.193 78.5182 11.8579 79.3476 10.9257C80.1771 9.99345 81.3496 9.52734 82.8651 9.52734C84.0504 9.52734 84.9847 9.79584 85.6631 10.3303C86.3415 10.8649 86.8459 11.6857 87.1761 12.7953L84.6059 13.4337C84.5163 13.1145 84.4215 12.8789 84.3243 12.7319C84.1604 12.4837 83.9633 12.2937 83.7278 12.1594C83.4923 12.0251 83.2286 11.9593 82.9368 11.9593C82.2763 11.9593 81.7719 12.2557 81.4212 12.8459C81.155 13.2842 81.0219 13.9733 81.0219 14.9131C81.0219 16.0759 81.1806 16.8739 81.498 17.3071C81.8155 17.7378 82.2609 17.9557 82.8344 17.9557C83.4078 17.9557 83.8123 17.7809 84.0964 17.4338C84.3806 17.0842 84.5879 16.5801 84.7159 15.9138L84.7134 15.9087Z" fill="#63121A"/>
<path d="M98.1353 9.79395H101.046V17.7105H105.587V20.297H98.1353V9.79395Z" fill="#63121A"/>
<path d="M93.6474 18.5334H90.7494L90.3474 20.2966H87.7417L90.8444 9.62109H93.6274L96.7294 20.2966H94.0574L93.6454 18.5334H93.6474ZM93.1174 16.223L92.2064 12.385L91.3054 16.223H93.1174Z" fill="#63121A"/>
<path d="M4.23431 3.6936C5.26091 3.6936 6.09801 2.8652 6.09801 1.8468C6.09801 0.828401 5.26341 0 4.23431 0C3.20521 0 2.37061 0.828401 2.37061 1.8468C2.37061 2.8652 3.20521 3.6936 4.23431 3.6936Z" fill="#63121A"/>
<path d="M11.5636 8.49399C12.5595 8.49399 13.3684 7.69099 13.3684 6.70549C13.3684 5.71999 12.5595 4.91699 11.5636 4.91699C10.5678 4.91699 9.75879 5.71999 9.75879 6.70549C9.75879 7.69099 10.5678 8.49399 11.5636 8.49399Z" fill="#63121A"/>
<path d="M26.5166 9.70996H30.2952L31.7518 16.1016L33.1982 9.70996H36.9742V20.2157H34.6216V12.2028L32.8091 20.2157H30.6792L28.8693 12.2028V20.2157H26.5166V9.70996Z" fill="#63121A"/>
<path d="M15.314 20.2158L13.1456 9.65938H10.002L8.3661 15.6381L6.2157 4.82578L6.2004 4.75488H2.2887L0 20.2158H2.9594L4.3572 9.60868L6.8736 20.1449L6.889 20.2158H9.8432L11.5277 12.2662L11.8605 14.4246L12.7463 20.2158H15.314Z" fill="#63121A"/>
<path d="M22.2238 18.4804H19.3259L18.9239 20.2157H16.3179L19.4206 9.70996H22.2033L25.306 20.2157H22.6334L22.2212 18.4804H22.2238ZM21.6939 16.208L20.7825 12.4308L19.8814 16.208H21.6939Z" fill="#63121A"/>
</svg>
